<?xml version="1.0" encoding="UTF-8"?>
<svg height="16" width="16" xmlns="http://www.w3.org/2000/svg">
    <path d="m -13.375 26 c -0.69219 0.04617 -1.48522 0.350316 -2.125 0.875 c -0.783895 0.642873 -1.420629 2.277217 -1.25 3.1875 c 0.08798 0.469342 0.442147 1.040424 0.78125 1.21875 c 0.631484 0.332085 1.782432 -0.218771 2.84375 -1.34375 c 1.146489 -1.215261 1.672995 -2.554322 1.28125 -3.3125 c -0.240753 -0.465948 -0.83906 -0.671173 -1.53125 -0.625 z m -5.65625 0.71875 c -0.962961 0.000866 -1.472444 0.677958 -1.46875 1.96875 c 0.0025 0.88392 0.31322 1.679132 0.71875 1.875 c 0.301512 0.145631 0.309051 0.132036 0.6875 0 c 0.626864 -0.218707 1.215803 -1.678559 1.09375 -2.65625 c -0.09989 -0.800159 -0.443807 -1.188029 -1.03125 -1.1875 z m -3.8125 1.3125 c -0.180183 0.02605 -0.360903 0.142012 -0.53125 0.3125 c -0.343364 0.343646 -0.347944 0.530957 -0.34375 1.1875 c 0.0049 0.774303 0.193895 1.196475 0.71875 1.75 c 0.392601 0.414046 0.675716 0.438798 1.03125 0.0625 c 0.385138 -0.407633 0.504721 -1.047693 0.375 -1.75 c -0.197834 -1.071067 -0.709451 -1.64066 -1.25 -1.5625 z m -2.6875 2.34375 c -0.186951 0.03041 -0.35545 0.136555 -0.53125 0.3125 c -0.461346 0.46173 -0.138669 1.731398 0.59375 2.375 c 0.874175 0.768169 1.580077 0.06483 1.28125 -1.28125 c -0.212654 -0.957908 -0.782897 -1.497481 -1.34375 -1.40625 z m 8.03125 1.6875 c -0.61906 -0.01065 -1.312804 0.04097 -2.03125 0.1875 c -1.85076 0.377471 -3.33166 1.075449 -4.28125 2.03125 c -0.546889 0.550465 -0.859803 1.060056 -1.125 1.84375 c -0.641919 1.896963 0.546896 4.595678 2.8125 6.4375 c 0.844088 0.686203 1.359152 0.993313 2.21875 1.28125 c 0.445736 0.149308 0.799163 0.183992 1.625 0.15625 c 0.946716 -0.03181 1.139252 -0.07408 1.75 -0.375 c 0.895036 -0.440989 1.909553 -1.461035 2.34375 -2.34375 c 0.264885 -0.5385 0.307321 -0.768628 0.28125 -1.21875 c -0.04452 -0.768578 -0.342658 -0.977756 -1.3125 -0.96875 c -1.38452 0.01285 -1.965756 0.333932 -2.25 1.3125 c -0.21469 0.739118 -0.452038 1 -0.9375 1 c -0.769368 0 -1.5625 -0.611791 -1.5625 -1.25 c 0 -0.443994 0.715313 -1.10577 2.5 -2.3125 c 2.514116 -1.69994 3.378489 -2.734111 3.25 -3.875 c -0.13273 -1.178551 -1.42407 -1.874295 -3.28125 -1.90625 z" fill="currentColor"/>
    <path d="m 7.998497 0.0000015 c -0.712281 1.7459936 -1.141889 2.8880795 -1.93492 4.5821725 c 0.486227 0.515304 1.083048 1.115401 2.052282 1.793154 c -1.042021 -0.428706 -1.823812 -0.752633 -2.354993 -1.199272 c -1.014929 2.117406 -2.534028 5.027074 -5.760853 10.82394 c 2.536175 -1.463903 4.502176 -2.366418 6.334393 -2.710793 c -0.07867 -0.338321 -0.123407 -0.704283 -0.120369 -1.086123 l 0.003 -0.08123 c 0.04024 -1.624556 0.885494 -2.873841 1.886774 -2.789017 c 1.001283 0.08482 1.779567 1.471339 1.739325 3.0959 c -0.0076 0.305687 -0.04206 0.599759 -0.102312 0.872506 c 1.812323 0.354456 3.757299 1.254661 6.259163 2.698759 c -0.493319 -0.908064 -0.933646 -1.726616 -1.354148 -2.506204 c -0.662352 -0.513272 -1.353218 -1.181297 -2.762454 -1.904474 c 0.968625 0.251642 1.591151 0.453235 2.13174 0.777755 c -4.275318 -7.958417 -4.550525 -8.9271915 -6.016628 -12.3670735 z" fill="currentColor" fill-rule="evenodd"/>
</svg>
